<mxfile host="app.diagrams.net" modified="2021-09-10T12:32:49.491Z" agent="5.0 (Windows NT 10.0; Win64; x64) AppleWebKit/537.36 (KHTML, like Gecko) Chrome/93.0.4577.63 Safari/537.36 Edg/93.0.961.38" etag="ovN17cXCZja-RwMWmoD_" version="15.1.2" type="github">
  <diagram id="C5RBs43oDa-KdzZeNtuy" name="Page-1">
    <mxGraphModel dx="990" dy="579" grid="1" gridSize="10" guides="1" tooltips="1" connect="1" arrows="1" fold="1" page="1" pageScale="1" pageWidth="827" pageHeight="1169" math="0" shadow="0">
      <root>
        <mxCell id="WIyWlLk6GJQsqaUBKTNV-0" />
        <mxCell id="WIyWlLk6GJQsqaUBKTNV-1" parent="WIyWlLk6GJQsqaUBKTNV-0" />
        <mxCell id="WIyWlLk6GJQsqaUBKTNV-3" value="&lt;span style=&quot;font-size: 18px&quot;&gt;评价指标&lt;/span&gt;" style="rounded=1;whiteSpace=wrap;html=1;fontSize=12;glass=0;strokeWidth=2.5;shadow=1;strokeColor=#3E7FA3;" parent="WIyWlLk6GJQsqaUBKTNV-1" vertex="1">
          <mxGeometry x="80" y="280" width="120" height="40" as="geometry" />
        </mxCell>
        <mxCell id="oPw_4JtilTDAKxZMYBcZ-12" value="" style="endArrow=none;html=1;exitX=1;exitY=0.5;exitDx=0;exitDy=0;strokeColor=#3E7FA3;shadow=1;strokeWidth=2.5;entryX=0;entryY=0.5;entryDx=0;entryDy=0;" parent="WIyWlLk6GJQsqaUBKTNV-1" source="oPw_4JtilTDAKxZMYBcZ-33" target="chU1rL-go9fCWPyvqsfP-4" edge="1">
          <mxGeometry width="50" height="50" relative="1" as="geometry">
            <mxPoint x="370" y="210" as="sourcePoint" />
            <mxPoint x="430" y="110" as="targetPoint" />
          </mxGeometry>
        </mxCell>
        <mxCell id="oPw_4JtilTDAKxZMYBcZ-15" value="" style="endArrow=none;html=1;exitX=1;exitY=0.5;exitDx=0;exitDy=0;strokeColor=#3E7FA3;shadow=1;strokeWidth=2.5;entryX=0;entryY=0.5;entryDx=0;entryDy=0;" parent="WIyWlLk6GJQsqaUBKTNV-1" source="oPw_4JtilTDAKxZMYBcZ-33" target="chU1rL-go9fCWPyvqsfP-5" edge="1">
          <mxGeometry width="50" height="50" relative="1" as="geometry">
            <mxPoint x="370" y="210" as="sourcePoint" />
            <mxPoint x="430" y="180" as="targetPoint" />
          </mxGeometry>
        </mxCell>
        <mxCell id="oPw_4JtilTDAKxZMYBcZ-16" value="" style="endArrow=none;html=1;exitX=1;exitY=0.5;exitDx=0;exitDy=0;entryX=0;entryY=0.5;entryDx=0;entryDy=0;strokeColor=#3E7FA3;shadow=1;strokeWidth=2.5;" parent="WIyWlLk6GJQsqaUBKTNV-1" source="WIyWlLk6GJQsqaUBKTNV-3" target="oPw_4JtilTDAKxZMYBcZ-33" edge="1">
          <mxGeometry width="50" height="50" relative="1" as="geometry">
            <mxPoint x="220" y="280" as="sourcePoint" />
            <mxPoint x="250" y="220" as="targetPoint" />
          </mxGeometry>
        </mxCell>
        <mxCell id="oPw_4JtilTDAKxZMYBcZ-18" value="" style="endArrow=none;html=1;entryX=0;entryY=0.5;entryDx=0;entryDy=0;exitX=1;exitY=0.5;exitDx=0;exitDy=0;strokeColor=#3E7FA3;shadow=1;strokeWidth=2.5;" parent="WIyWlLk6GJQsqaUBKTNV-1" source="WIyWlLk6GJQsqaUBKTNV-3" target="oPw_4JtilTDAKxZMYBcZ-34" edge="1">
          <mxGeometry width="50" height="50" relative="1" as="geometry">
            <mxPoint x="220" y="360" as="sourcePoint" />
            <mxPoint x="270" y="390" as="targetPoint" />
          </mxGeometry>
        </mxCell>
        <mxCell id="oPw_4JtilTDAKxZMYBcZ-20" value="" style="endArrow=none;html=1;exitX=1;exitY=0.5;exitDx=0;exitDy=0;strokeColor=#3E7FA3;shadow=1;strokeWidth=2.5;entryX=0;entryY=0.5;entryDx=0;entryDy=0;" parent="WIyWlLk6GJQsqaUBKTNV-1" source="oPw_4JtilTDAKxZMYBcZ-34" target="chU1rL-go9fCWPyvqsfP-11" edge="1">
          <mxGeometry width="50" height="50" relative="1" as="geometry">
            <mxPoint x="370" y="390" as="sourcePoint" />
            <mxPoint x="410" y="410" as="targetPoint" />
          </mxGeometry>
        </mxCell>
        <mxCell id="oPw_4JtilTDAKxZMYBcZ-22" value="" style="endArrow=none;html=1;exitX=1;exitY=0.5;exitDx=0;exitDy=0;strokeColor=#3E7FA3;shadow=1;strokeWidth=2.5;entryX=0;entryY=0.5;entryDx=0;entryDy=0;" parent="WIyWlLk6GJQsqaUBKTNV-1" source="oPw_4JtilTDAKxZMYBcZ-34" target="chU1rL-go9fCWPyvqsfP-12" edge="1">
          <mxGeometry width="50" height="50" relative="1" as="geometry">
            <mxPoint x="370" y="390" as="sourcePoint" />
            <mxPoint x="440" y="490" as="targetPoint" />
          </mxGeometry>
        </mxCell>
        <mxCell id="oPw_4JtilTDAKxZMYBcZ-33" value="&lt;span style=&quot;font-size: 18px&quot;&gt;企业对供应商依赖程度&lt;/span&gt;" style="rounded=0;whiteSpace=wrap;html=1;strokeColor=#3E7FA3;shadow=1;strokeWidth=2.5;" parent="WIyWlLk6GJQsqaUBKTNV-1" vertex="1">
          <mxGeometry x="260" y="110" width="110" height="70" as="geometry" />
        </mxCell>
        <mxCell id="oPw_4JtilTDAKxZMYBcZ-34" value="&lt;span style=&quot;font-size: 18px&quot;&gt;供应商实力&lt;/span&gt;" style="rounded=0;whiteSpace=wrap;html=1;strokeColor=#3E7FA3;shadow=1;strokeWidth=2.5;" parent="WIyWlLk6GJQsqaUBKTNV-1" vertex="1">
          <mxGeometry x="250" y="270" width="110" height="60" as="geometry" />
        </mxCell>
        <mxCell id="chU1rL-go9fCWPyvqsfP-1" value="" style="endArrow=none;html=1;exitX=1;exitY=0.5;exitDx=0;exitDy=0;shadow=1;entryX=0;entryY=0.5;entryDx=0;entryDy=0;strokeWidth=2.5;strokeColor=#3E7FA3;" edge="1" parent="WIyWlLk6GJQsqaUBKTNV-1" source="WIyWlLk6GJQsqaUBKTNV-3" target="chU1rL-go9fCWPyvqsfP-2">
          <mxGeometry width="50" height="50" relative="1" as="geometry">
            <mxPoint x="440" y="310" as="sourcePoint" />
            <mxPoint x="250" y="300" as="targetPoint" />
          </mxGeometry>
        </mxCell>
        <mxCell id="chU1rL-go9fCWPyvqsfP-2" value="&lt;span style=&quot;font-size: 18px&quot;&gt;企业与供应商匹配程度&lt;/span&gt;" style="rounded=0;whiteSpace=wrap;html=1;shadow=1;strokeColor=#3E7FA3;strokeWidth=2.5;" vertex="1" parent="WIyWlLk6GJQsqaUBKTNV-1">
          <mxGeometry x="260" y="420" width="120" height="60" as="geometry" />
        </mxCell>
        <mxCell id="chU1rL-go9fCWPyvqsfP-4" value="&lt;span style=&quot;font-size: 18px&quot;&gt;总订货量&lt;/span&gt;" style="rounded=1;whiteSpace=wrap;html=1;shadow=1;strokeColor=#3E7FA3;strokeWidth=2.5;" vertex="1" parent="WIyWlLk6GJQsqaUBKTNV-1">
          <mxGeometry x="430" y="50" width="100" height="40" as="geometry" />
        </mxCell>
        <mxCell id="chU1rL-go9fCWPyvqsfP-5" value="&lt;span style=&quot;font-size: 18px&quot;&gt;订货率&lt;/span&gt;" style="rounded=1;whiteSpace=wrap;html=1;shadow=1;strokeColor=#3E7FA3;strokeWidth=2.5;" vertex="1" parent="WIyWlLk6GJQsqaUBKTNV-1">
          <mxGeometry x="430" y="125" width="100" height="40" as="geometry" />
        </mxCell>
        <mxCell id="chU1rL-go9fCWPyvqsfP-7" value="" style="endArrow=none;html=1;exitX=1;exitY=0.5;exitDx=0;exitDy=0;strokeColor=#3E7FA3;shadow=1;strokeWidth=2.5;entryX=0;entryY=0.5;entryDx=0;entryDy=0;" edge="1" parent="WIyWlLk6GJQsqaUBKTNV-1" target="chU1rL-go9fCWPyvqsfP-8" source="chU1rL-go9fCWPyvqsfP-2">
          <mxGeometry width="50" height="50" relative="1" as="geometry">
            <mxPoint x="375" y="295" as="sourcePoint" />
            <mxPoint x="435" y="260" as="targetPoint" />
          </mxGeometry>
        </mxCell>
        <mxCell id="chU1rL-go9fCWPyvqsfP-8" value="&lt;span style=&quot;font-size: 18px&quot;&gt;企业满意率&lt;/span&gt;" style="rounded=1;whiteSpace=wrap;html=1;shadow=1;strokeColor=#3E7FA3;strokeWidth=2.5;" vertex="1" parent="WIyWlLk6GJQsqaUBKTNV-1">
          <mxGeometry x="435" y="490" width="100" height="40" as="geometry" />
        </mxCell>
        <mxCell id="chU1rL-go9fCWPyvqsfP-9" value="" style="endArrow=none;html=1;strokeColor=#3E7FA3;shadow=1;strokeWidth=2.5;entryX=0;entryY=0.5;entryDx=0;entryDy=0;exitX=1;exitY=0.5;exitDx=0;exitDy=0;" edge="1" parent="WIyWlLk6GJQsqaUBKTNV-1" target="chU1rL-go9fCWPyvqsfP-10" source="chU1rL-go9fCWPyvqsfP-2">
          <mxGeometry width="50" height="50" relative="1" as="geometry">
            <mxPoint x="410" y="330" as="sourcePoint" />
            <mxPoint x="495" y="330" as="targetPoint" />
          </mxGeometry>
        </mxCell>
        <mxCell id="chU1rL-go9fCWPyvqsfP-10" value="&lt;span style=&quot;font-size: 18px&quot;&gt;供需差&lt;/span&gt;" style="rounded=1;whiteSpace=wrap;html=1;shadow=1;strokeColor=#3E7FA3;strokeWidth=2.5;" vertex="1" parent="WIyWlLk6GJQsqaUBKTNV-1">
          <mxGeometry x="435" y="430" width="100" height="40" as="geometry" />
        </mxCell>
        <mxCell id="chU1rL-go9fCWPyvqsfP-11" value="&lt;span style=&quot;font-size: 18px&quot;&gt;总供应量&lt;/span&gt;" style="rounded=1;whiteSpace=wrap;html=1;shadow=1;strokeColor=#3E7FA3;strokeWidth=2.5;" vertex="1" parent="WIyWlLk6GJQsqaUBKTNV-1">
          <mxGeometry x="430" y="200" width="100" height="50" as="geometry" />
        </mxCell>
        <mxCell id="chU1rL-go9fCWPyvqsfP-12" value="&lt;span style=&quot;font-size: 18px&quot;&gt;供应率&lt;/span&gt;" style="rounded=1;whiteSpace=wrap;html=1;shadow=1;strokeColor=#3E7FA3;strokeWidth=2.5;" vertex="1" parent="WIyWlLk6GJQsqaUBKTNV-1">
          <mxGeometry x="430" y="275" width="100" height="50" as="geometry" />
        </mxCell>
        <mxCell id="chU1rL-go9fCWPyvqsfP-14" style="edgeStyle=orthogonalEdgeStyle;rounded=0;orthogonalLoop=1;jettySize=auto;html=1;exitX=0.5;exitY=1;exitDx=0;exitDy=0;shadow=1;strokeColor=#3E7FA3;strokeWidth=2.5;" edge="1" parent="WIyWlLk6GJQsqaUBKTNV-1" source="chU1rL-go9fCWPyvqsfP-11" target="chU1rL-go9fCWPyvqsfP-11">
          <mxGeometry relative="1" as="geometry" />
        </mxCell>
        <mxCell id="chU1rL-go9fCWPyvqsfP-15" value="" style="endArrow=none;html=1;shadow=1;strokeColor=#3E7FA3;strokeWidth=2.5;exitX=1;exitY=0.5;exitDx=0;exitDy=0;entryX=0;entryY=0.5;entryDx=0;entryDy=0;" edge="1" parent="WIyWlLk6GJQsqaUBKTNV-1" source="oPw_4JtilTDAKxZMYBcZ-34" target="chU1rL-go9fCWPyvqsfP-16">
          <mxGeometry width="50" height="50" relative="1" as="geometry">
            <mxPoint x="430" y="380" as="sourcePoint" />
            <mxPoint x="420" y="350" as="targetPoint" />
          </mxGeometry>
        </mxCell>
        <mxCell id="chU1rL-go9fCWPyvqsfP-16" value="&lt;span style=&quot;font-size: 18px&quot;&gt;供应原材料占比&lt;/span&gt;" style="rounded=1;whiteSpace=wrap;html=1;shadow=1;strokeColor=#3E7FA3;strokeWidth=2.5;" vertex="1" parent="WIyWlLk6GJQsqaUBKTNV-1">
          <mxGeometry x="425" y="350" width="110" height="50" as="geometry" />
        </mxCell>
      </root>
    </mxGraphModel>
  </diagram>
</mxfile>
